<svg id="Layer_1" data-name="Layer 1" xmlns="http://www.w3.org/2000/svg" xmlns:xlink="http://www.w3.org/1999/xlink" viewBox="0 0 103 44"><defs><style>.cls-1{fill:#fff;}.cls-2{mask:url(#mask);}.cls-3{fill:#ff7175;}</style><mask id="mask" x="0.22" y="1.53" width="33.53" height="39.69" maskUnits="userSpaceOnUse"><g id="b"><path id="a" class="cls-1" d="M.22,1.53V41.22H33.74V1.53Z"/></g></mask></defs><title>Artboard 1</title><g class="cls-2"><path class="cls-3" d="M11.39,26.88q-.31,1.07-.58,2.15l-.59,2.35c-.18.69-.3,1.25-.37,1.65a1.61,1.61,0,0,1-1.38,1.32,4.15,4.15,0,0,1-2.08-.16A4.88,4.88,0,0,1,4.45,33a3,3,0,0,1-.9-2.2,17.26,17.26,0,0,1,.55-3.42c.36-1.55.88-3.4,1.54-5.48Q6.74,18.49,8,15.14,9.22,12,10.65,8.89a2.15,2.15,0,0,1,1.71-1.23,13,13,0,0,1,4.41.14,1.21,1.21,0,0,1,.84,1.68q-1.18,2.6-2.2,5.27-.79,2.05-1.53,4.12a.16.16,0,0,0,.22.2A15.69,15.69,0,0,0,16,18a14,14,0,0,0,2.76-2.31,11.44,11.44,0,0,0,2-2.95,8.12,8.12,0,0,0,.75-3.45,4.24,4.24,0,0,0-1.31-3.45A5.63,5.63,0,0,0,16.5,4.8,8.9,8.9,0,0,0,12,6,13.46,13.46,0,0,0,8.46,8.84a14,14,0,0,0-2.28,3.59,8.52,8.52,0,0,0-.8,3.24,1.31,1.31,0,0,1-1,1.32,2.7,2.7,0,0,1-1.78-.08A3.82,3.82,0,0,1,1,15.62,4.12,4.12,0,0,1,.22,13a7.25,7.25,0,0,1,1.1-3.38A14.21,14.21,0,0,1,4.47,5.9,18.84,18.84,0,0,1,9.63,2.82a18.44,18.44,0,0,1,7.08-1.29A19.65,19.65,0,0,1,21.19,2a14,14,0,0,1,4,1.57A9.29,9.29,0,0,1,28,6.24a6.25,6.25,0,0,1,1.12,3.68,9,9,0,0,1-1,4.16,12.09,12.09,0,0,1-2.65,3.41,17.28,17.28,0,0,1-3.87,2.61,25.57,25.57,0,0,1-3.84,1.55.14.14,0,0,0-.11.16c0,.66.08,1.31.14,1.94s.18,1.42.3,2.09.26,1.29.43,1.9a19.16,19.16,0,0,0,.73,2.15A15.07,15.07,0,0,0,20,31.32a12.38,12.38,0,0,0,.78,1.25,10.42,10.42,0,0,0,.85,1.06,9,9,0,0,0,.91.86,7.89,7.89,0,0,0,1,.68,7,7,0,0,0,3.15,1,7.63,7.63,0,0,0,1.14,0A8.57,8.57,0,0,0,29,35.93a9.94,9.94,0,0,0,1.23-.37A12.64,12.64,0,0,0,32,34.73a1.19,1.19,0,0,1,1.55.33,1.16,1.16,0,0,1-.18,1.56,25.23,25.23,0,0,1-2.28,1.77c-.5.35-1,.67-1.52,1l-.79.42a15.7,15.7,0,0,1-1.56.68,13.31,13.31,0,0,1-1.54.47,11.53,11.53,0,0,1-1.51.26,10.5,10.5,0,0,1-1.47,0,9.52,9.52,0,0,1-2.1-.33,9.18,9.18,0,0,1-1.93-.78,9.68,9.68,0,0,1-1.17-.75,10.48,10.48,0,0,1-.88-.74,11.54,11.54,0,0,1-1-1,13,13,0,0,1-.88-1.18A15,15,0,0,1,14,35.08c-.24-.46-.47-.95-.67-1.45s-.4-1-.57-1.57-.33-1.12-.46-1.69-.26-1.2-.35-1.8-.16-1.11-.22-1.67a.16.16,0,0,0-.31,0"/></g><path class="cls-3" d="M101.44,5.05A4.48,4.48,0,1,1,97,.61a4.46,4.46,0,0,1,4.48,4.44M80.2,17.21a24.41,24.41,0,0,1-.66,2.67A30.23,30.23,0,0,1,78.4,23q-.7,1.52-1.52,3a18.91,18.91,0,0,1-1.5,2.28,6.71,6.71,0,0,1-1.31,1.33,1,1,0,0,1-.52.23h-.07c-.05,0-.21-.13-.29-.67a6.41,6.41,0,0,1,.11-1.91A23.1,23.1,0,0,1,74,24.52a29.63,29.63,0,0,1,1.14-3.11,26,26,0,0,1,1.49-3,18.93,18.93,0,0,1,1.53-2.26,6.89,6.89,0,0,1,1.31-1.31,1,1,0,0,1,.52-.23H80s.21.14.29.67a6.32,6.32,0,0,1-.11,1.88m-20.07,0a24.4,24.4,0,0,1-.66,2.67A30.12,30.12,0,0,1,58.33,23q-.7,1.52-1.52,3a18.77,18.77,0,0,1-1.5,2.28A6.63,6.63,0,0,1,54,29.57a1,1,0,0,1-.52.23h-.07s-.22-.13-.29-.67a6.45,6.45,0,0,1,.1-1.91,23.42,23.42,0,0,1,.66-2.69A29.57,29.57,0,0,1,55,21.41a26,26,0,0,1,1.48-3A19.31,19.31,0,0,1,58,16.2a7,7,0,0,1,1.31-1.31,1,1,0,0,1,.52-.23h.07s.22.14.29.67a6.33,6.33,0,0,1-.1,1.88m-21.72,0a20.74,20.74,0,0,1-.5,2.69,24.82,24.82,0,0,1-1,3.1q-.59,1.51-1.33,3a15.91,15.91,0,0,1-1.36,2.25A6.34,6.34,0,0,1,33,29.48a.9.9,0,0,1-.49.23h-.07c-.05,0-.22-.14-.31-.68a7.58,7.58,0,0,1,0-1.9,17.83,17.83,0,0,1,.47-2.66,24.75,24.75,0,0,1,1-3.1q.59-1.52,1.33-3a17.16,17.16,0,0,1,1.37-2.27,6.14,6.14,0,0,1,1.22-1.32.91.91,0,0,1,.49-.23H38c.05,0,.24.14.35.69a6.37,6.37,0,0,1,0,1.9m62,5.78a1.3,1.3,0,0,0-1.07-.55,1.22,1.22,0,0,0-1,.52c-.26.38-.59.83-1,1.34A18,18,0,0,1,96,25.85a14.82,14.82,0,0,1-1.36,1.28,1.54,1.54,0,0,1-.9.44c-.11,0-.33,0-.38-.56a7.36,7.36,0,0,1,.26-2.26,26.84,26.84,0,0,1,1-3.1q1.13-3,2.44-5.89c.33-.74.54-1.22.63-1.43a1.56,1.56,0,0,0-.28-1.73,3.26,3.26,0,0,0-1.66-1,4.58,4.58,0,0,0-2.15,0A2.88,2.88,0,0,0,91.71,13a30.89,30.89,0,0,0-1.56,3q-1,2.22-1.82,4.52c-.35,1-.67,2-1,3a8.55,8.55,0,0,1-2.85,4.29A18.15,18.15,0,0,1,83,28.93q-.35.23-.72.43a.08.08,0,0,1-.1-.12q.62-.81,1.22-1.75a24.38,24.38,0,0,0,2.22-4.56,21.39,21.39,0,0,0,1.29-5A10.91,10.91,0,0,0,86.72,14a5,5,0,0,0-1.5-2.6,4,4,0,0,0-2.69-1,6.21,6.21,0,0,0-3.39,1,13.43,13.43,0,0,0-1.9,1.46s-.09,0-.12,0a2.43,2.43,0,0,0-.52-.57,3.87,3.87,0,0,0-1.75-.8,4.07,4.07,0,0,0-2,.14,2.6,2.6,0,0,0-1.58,1.43q-1.09,2.36-2,4.78Q68,20.94,67,24.06A8.56,8.56,0,0,1,64,28.15c-.36.27-.73.54-1.12.78q-.35.23-.72.43a.08.08,0,0,1-.1-.12q.65-.85,1.22-1.75a24.38,24.38,0,0,0,2.22-4.56,21.39,21.39,0,0,0,1.29-5A10.91,10.91,0,0,0,66.65,14a5,5,0,0,0-1.5-2.6,4,4,0,0,0-2.69-1,6.22,6.22,0,0,0-3.39,1,13.5,13.5,0,0,0-1.9,1.46s-.09,0-.12,0a2.43,2.43,0,0,0-.52-.57,3.86,3.86,0,0,0-1.75-.8,4.07,4.07,0,0,0-2,.14,2.6,2.6,0,0,0-1.59,1.43q-1.09,2.36-2,4.78-1,2.58-1.9,5.2a8.22,8.22,0,0,1-2.16,3.39c-.26.25-.52.48-.77.69a1.54,1.54,0,0,1-.9.44c-.12,0-.33,0-.38-.56a7.34,7.34,0,0,1,.26-2.26,26.49,26.49,0,0,1,1-3.1c.43-1.13.86-2.21,1.29-3.23s.82-1.92,1.15-2.66q.33-.71.62-1.43a1.55,1.55,0,0,0-.28-1.73,3.27,3.27,0,0,0-1.69-1,4.58,4.58,0,0,0-2.15,0,2.89,2.89,0,0,0-1.88,1.38l-.29.49a.08.08,0,0,1-.15,0,4.3,4.3,0,0,0-.42-1.14A3.36,3.36,0,0,0,39.23,11a4.09,4.09,0,0,0-2.11-.5,9,9,0,0,0-6,2.69c-1.95,1.75-3.56,4.55-4.8,8.32a20.86,20.86,0,0,0-1,5,10.85,10.85,0,0,0,.37,3.88,5.29,5.29,0,0,0,1.64,2.57,4.18,4.18,0,0,0,2.73,1,6.12,6.12,0,0,0,2.2-.4,8.28,8.28,0,0,0,1.83-1,8.17,8.17,0,0,0,1.17-1,.48.48,0,0,1,.81.19,3.76,3.76,0,0,0,.49,1A2.77,2.77,0,0,0,39,33.88a6.16,6.16,0,0,0,3.65-1.34,20.31,20.31,0,0,0,1.65-1.35.16.16,0,0,1,.26.16c-.31,1-.59,2-.84,2.86C43.3,35.7,43,37,42.7,38a10.52,10.52,0,0,0-.39,2,3.13,3.13,0,0,0,.8,2.18,4.37,4.37,0,0,0,1.78,1.2,3.84,3.84,0,0,0,1.27.23,3,3,0,0,0,.65-.07,1.56,1.56,0,0,0,1.26-1.31v0c.07-.47.2-1.1.4-1.89s.44-1.74.72-2.75.59-2.13,1-3.43q.26-.9.55-1.89a.16.16,0,0,1,.29,0,4.4,4.4,0,0,0,.29.44,3.39,3.39,0,0,0,2.87,1.21l.78,0a14.53,14.53,0,0,0,5.34-1,21.55,21.55,0,0,0,4.25-2.22.16.16,0,0,1,.24.18q-.51,1.66-1,3.32-.55,1.91-1,3.83a10.58,10.58,0,0,0-.39,2,3.13,3.13,0,0,0,.8,2.18A4.35,4.35,0,0,0,65,43.38a3.84,3.84,0,0,0,1.26.23,3,3,0,0,0,.66-.07,1.56,1.56,0,0,0,1.25-1.31v0c.07-.47.2-1.1.4-1.89s.44-1.74.72-2.75.6-2.13,1-3.43q.26-.9.55-1.89a.16.16,0,0,1,.29,0,4.4,4.4,0,0,0,.29.44,3.38,3.38,0,0,0,2.87,1.21l.78,0a14.54,14.54,0,0,0,5.34-1,21.16,21.16,0,0,0,4.9-2.68L86,29.7a.16.16,0,0,1,.26.13V30a4.76,4.76,0,0,0,.71,2.74,2.77,2.77,0,0,0,2.44,1.13A6.28,6.28,0,0,0,93,32.54a20.67,20.67,0,0,0,3.27-3,31.79,31.79,0,0,0,2.59-3.28q.77-1.12,1.51-2.27a1,1,0,0,0,0-1.07"/></svg>